<?xml version="1.0" encoding="iso-8859-1"?>
<!-- Generator: Adobe Illustrator 19.0.0, SVG Export Plug-In . SVG Version: 6.00 Build 0)  -->
<svg version="1.1" id="Capa_1" xmlns="http://www.w3.org/2000/svg" xmlns:xlink="http://www.w3.org/1999/xlink" x="0px" y="0px"
	 viewBox="0 0 508.05 508.05" style="enable-background:new 0 0 508.05 508.05;" xml:space="preserve">
<path style="fill:#FFD15C;" d="M469.475,38.625c51.5,51.5,51.4,135.2-0.1,186.7l-115.7,115.7c-2.2,2.2-4.4,4.1-6.6,6
	c-32.5,28.5-75.9,38.3-115.8,29.3c-23.5-5.2-46-16.9-64.3-35.2c-18.4-18.4-30-40.7-35.3-64.3l66.3-66.3c2.1-2.1,4.4-4.1,6.7-5.8
	c-21.4,27.6-19.5,67.5,5.9,92.9c25.3,25.3,65.3,27.2,92.8,5.8c2.4-1.8,4.6-3.7,6.8-5.9l115.7-115.7c27.5-27.5,27.5-72.1,0.1-99.6
	c-27.5-27.5-72.2-27.5-99.6,0l-49.4,49.4c-40-8.9-83.3,0.8-115.9,29.3c2-2.3,3.8-4.4,6-6.6l115.6-115.7
	C334.175-12.875,417.975-12.875,469.475,38.625z"/>
<path style="fill:#FF7058;" d="M341.275,166.925c18.3,18.3,30,40.7,35.2,64.3l-66.3,66.3c-2.2,2.2-4.4,4.1-6.8,5.9
	c21.5-27.6,19.5-67.6-5.7-92.9c-25.3-25.3-65.3-27.2-93-5.8c-2.3,1.7-4.6,3.7-6.7,5.8l-115.7,115.7c-27.5,27.5-27.4,72.1,0.1,99.6
	s72,27.5,99.5,0l49.5-49.5c39.9,9,83.3-0.8,115.8-29.3c-1.9,2.2-3.8,4.4-6,6.5l-115.8,115.9c-51.5,51.5-135.2,51.5-186.7,0
	s-51.6-135.2-0.1-186.7l115.8-115.8c2.1-2.1,4.4-4.1,6.5-6c32.6-28.5,75.9-38.3,115.9-29.3
	C300.475,136.925,322.875,148.525,341.275,166.925z"/>
<g>
</g>
<g>
</g>
<g>
</g>
<g>
</g>
<g>
</g>
<g>
</g>
<g>
</g>
<g>
</g>
<g>
</g>
<g>
</g>
<g>
</g>
<g>
</g>
<g>
</g>
<g>
</g>
<g>
</g>
</svg>
