<svg height="512" viewBox="0 0 64 64" width="512" xmlns="http://www.w3.org/2000/svg"><g id="Choice"><path d="m55 30 6 7-6 7v-4h-8v-6h8z" fill="#ffeb99"/><path d="m56.04 12.96.71 9.19-2.83-2.83-5.66 5.66-4.24-4.24 5.66-5.66-2.83-2.83z" fill="#c0ab91"/><path d="m49 57v4h-34v-4a2.006 2.006 0 0 1 2-2h8l7 2 7-2h8a2.006 2.006 0 0 1 2 2z" fill="#57a4ff"/><path d="m44 37v1a2.006 2.006 0 0 1 -2 2h-1v-5h1a2.006 2.006 0 0 1 2 2z" fill="#ffc477"/><path d="m44 30v2l-3 3v-3l-11-3-7 3v3l-3-3v-2a8 8 0 0 1 8-8h8a8 8 0 0 1 8 8z" fill="#c0ab91"/><path d="m41 32v8a8.981 8.981 0 0 1 -6 8.48 8.914 8.914 0 0 1 -6 0 8.981 8.981 0 0 1 -6-8.48v-8l7-3z" fill="#ffdaaa"/><path d="m39 9h-4v8h-6v-8h-4l7-6z" fill="#ffeb99"/><path d="m39 55-7 2-7-2 4-3v-3.52a8.914 8.914 0 0 0 6 0v3.52z" fill="#ffdaaa"/><path d="m49 57v4h-2v-4a2.006 2.006 0 0 0 -2-2h2a2.006 2.006 0 0 1 2 2z" fill="#2488ff"/><g fill="#ffc477"><path d="m41 32v8a8.981 8.981 0 0 1 -6 8.48 8.8 8.8 0 0 1 -3 .52 8.262 8.262 0 0 1 -1-.06 8.431 8.431 0 0 0 2-.46 8.981 8.981 0 0 0 6-8.48v-8l-9.78-2.67.78-.33z"/><path d="m39 55-7 2-1-.29 6-1.71-4-3v-3.06a8.431 8.431 0 0 0 2-.46v3.52z"/><path d="m23 35v5h-1a2.006 2.006 0 0 1 -2-2v-1a2.006 2.006 0 0 1 2-2z"/></g><path d="m19.98 20.74-4.24 4.24-5.66-5.66-2.83 2.83.71-9.19 9.19-.71-2.83 2.83z" fill="#c0ab91"/><path d="m17 34v6h-8v4l-6-7 6-7v4z" fill="#ffeb99"/><path d="m47 54h-7.667l-3.333-2.5v-2.341a10.02 10.02 0 0 0 5.949-8.159h.051a3 3 0 0 0 3-3v-1a3 3 0 0 0 -1.826-2.76l1.533-1.533a1 1 0 0 0 .293-.707v-2a9.01 9.01 0 0 0 -9-9h-8a9.01 9.01 0 0 0 -9 9v2a1 1 0 0 0 .293.707l1.533 1.533a3 3 0 0 0 -1.826 2.76v1a3 3 0 0 0 3 3h.051a10.02 10.02 0 0 0 5.949 8.159v2.341l-3.333 2.5h-7.667a3 3 0 0 0 -3 3v4a1 1 0 0 0 1 1h34a1 1 0 0 0 1-1v-4a3 3 0 0 0 -3-3zm-4-16a1 1 0 0 1 -1 1v-3a1 1 0 0 1 1 1zm-22-8a7.009 7.009 0 0 1 7-7h8a7.009 7.009 0 0 1 7 7v1.586l-1 1v-.586a1 1 0 0 0 -.737-.965l-11-3a1 1 0 0 0 -.657.046l-7 3a1 1 0 0 0 -.606.919v.586l-1-1zm0 8v-1a1 1 0 0 1 1-1v3a1 1 0 0 1 -1-1zm3 2v-7.341l6.073-2.6 9.927 2.705v7.236a8 8 0 0 1 -16 0zm5.6 12.8a1 1 0 0 0 .4-.8v-2.2a10 10 0 0 0 4 0v2.2a1 1 0 0 0 .4.8l2.389 1.791-4.789 1.369-4.789-1.369zm18.4 7.2h-32v-3a1 1 0 0 1 1-1h7.86l6.866 1.962a1 1 0 0 0 .548 0l6.866-1.962h7.86a1 1 0 0 1 1 1z"/><path d="m25 10h3v7a1 1 0 0 0 1 1h6a1 1 0 0 0 1-1v-7h3a1 1 0 0 0 .65-1.759l-7-6a1 1 0 0 0 -1.3 0l-7 6a1 1 0 0 0 .65 1.759zm7-5.683 4.3 3.683h-1.3a1 1 0 0 0 -1 1v7h-4v-7a1 1 0 0 0 -1-1h-1.3z"/><path d="m6.833 23.059a1 1 0 0 0 1.125-.2l2.122-2.121 4.949 4.951a1 1 0 0 0 1.414 0l4.244-4.244a1 1 0 0 0 0-1.414l-4.951-4.951 2.121-2.122a1 1 0 0 0 -.784-1.7l-9.192.707a1 1 0 0 0 -.92.92l-.707 9.192a1 1 0 0 0 .579.982zm2.057-9.169 5.642-.435-.917.918a1 1 0 0 0 0 1.414l4.95 4.949-2.829 2.829-4.949-4.95a1 1 0 0 0 -1.414 0l-.918.917z"/><path d="m18 40v-6a1 1 0 0 0 -1-1h-7v-3a1 1 0 0 0 -1.759-.65l-6 7a1 1 0 0 0 0 1.3l6 7a1 1 0 0 0 .759.35 1.025 1.025 0 0 0 .347-.062 1 1 0 0 0 .653-.938v-3h7a1 1 0 0 0 1-1zm-2-1h-7a1 1 0 0 0 -1 1v1.3l-3.683-4.3 3.683-4.3v1.3a1 1 0 0 0 1 1h7z"/><path d="m61.759 36.35-6-7a1 1 0 0 0 -1.759.65v3h-7a1 1 0 0 0 -1 1v6a1 1 0 0 0 1 1h7v3a1 1 0 0 0 .653.938 1.025 1.025 0 0 0 .347.062 1 1 0 0 0 .759-.35l6-7a1 1 0 0 0 0-1.3zm-5.759 4.95v-1.3a1 1 0 0 0 -1-1h-7v-4h7a1 1 0 0 0 1-1v-1.3l3.683 4.3z"/><path d="m47.557 25.687a1 1 0 0 0 1.414 0l4.949-4.951 2.122 2.121a1 1 0 0 0 1.7-.784l-.707-9.192a1 1 0 0 0 -.92-.92l-9.192-.707a1 1 0 0 0 -.784 1.7l2.121 2.122-4.951 4.949a1 1 0 0 0 0 1.414zm2.828-9.9a1 1 0 0 0 0-1.414l-.917-.918 5.642.435.435 5.642-.918-.917a1 1 0 0 0 -1.414 0l-4.949 4.95-2.829-2.829z"/></g></svg>