<?xml version="1.0" encoding="iso-8859-1"?>
<!-- Generator: Adobe Illustrator 19.0.0, SVG Export Plug-In . SVG Version: 6.00 Build 0)  -->
<svg version="1.1" id="Capa_1" xmlns="http://www.w3.org/2000/svg" xmlns:xlink="http://www.w3.org/1999/xlink" x="0px" y="0px"
	 viewBox="0 0 480 480" style="enable-background:new 0 0 480 480;" xml:space="preserve">
<linearGradient id="SVGID_1_" gradientUnits="userSpaceOnUse" x1="-88.576" y1="587.625" x2="-28.765" y2="587.625" gradientTransform="matrix(8 0 0 -8 679 4941)">
	<stop  offset="0" style="stop-color:#EE235F"/>
	<stop  offset="1" style="stop-color:#F7B733"/>
</linearGradient>
<path style="fill:url(#SVGID_1_);" d="M256,0h-96c-4.418,0-8,3.582-8,8v40h-48c-4.418,0-8,3.582-8,8v24H48c-4.418,0-8,3.582-8,8v384
	c0,4.418,3.582,8,8,8h320c4.418,0,8-3.582,8-8V88c0-4.418-3.582-8-8-8h-48V56c0-4.418-3.582-8-8-8h-48V8C264,3.582,260.418,0,256,0z
	 M168,16h80v32h-80V16z M312,144c4.418,0,8-3.582,8-8v-8h8v304H88V128h8v8c0,4.418,3.582,8,8,8H312z M360,96v368H56V96h40v16H80
	c-4.418,0-8,3.582-8,8v320c0,4.418,3.582,8,8,8h256c4.418,0,8-3.582,8-8V120c0-4.418-3.582-8-8-8h-16V96H360z M304,128H112V64h192
	V128z"/>
<g>
	
		<linearGradient id="SVGID_2_" gradientUnits="userSpaceOnUse" x1="-88.576" y1="594.625" x2="-28.765" y2="594.625" gradientTransform="matrix(8 0 0 -8 679 4941)">
		<stop  offset="0" style="stop-color:#EE235F"/>
		<stop  offset="1" style="stop-color:#F7B733"/>
	</linearGradient>
	<path style="fill:url(#SVGID_2_);" d="M112,192h24c4.418,0,8-3.582,8-8s-3.582-8-8-8h-24c-4.418,0-8,3.582-8,8S107.582,192,112,192
		z"/>
	
		<linearGradient id="SVGID_3_" gradientUnits="userSpaceOnUse" x1="-88.576" y1="594.625" x2="-28.765" y2="594.625" gradientTransform="matrix(8 0 0 -8 679 4941)">
		<stop  offset="0" style="stop-color:#EE235F"/>
		<stop  offset="1" style="stop-color:#F7B733"/>
	</linearGradient>
	<path style="fill:url(#SVGID_3_);" d="M168,192h72c4.418,0,8-3.582,8-8s-3.582-8-8-8h-72c-4.418,0-8,3.582-8,8S163.582,192,168,192
		z"/>
	
		<linearGradient id="SVGID_4_" gradientUnits="userSpaceOnUse" x1="-88.576" y1="594.625" x2="-28.765" y2="594.625" gradientTransform="matrix(8 0 0 -8 679 4941)">
		<stop  offset="0" style="stop-color:#EE235F"/>
		<stop  offset="1" style="stop-color:#F7B733"/>
	</linearGradient>
	<path style="fill:url(#SVGID_4_);" d="M272,208h32c4.418,0,8-3.582,8-8v-32c0-4.418-3.582-8-8-8h-32c-4.418,0-8,3.582-8,8v32
		C264,204.418,267.582,208,272,208z M280,176h16v16h-16V176z"/>
</g>
<g>
	
		<linearGradient id="SVGID_5_" gradientUnits="userSpaceOnUse" x1="-88.576" y1="586.625" x2="-28.765" y2="586.625" gradientTransform="matrix(8 0 0 -8 679 4941)">
		<stop  offset="0" style="stop-color:#EE235F"/>
		<stop  offset="1" style="stop-color:#F7B733"/>
	</linearGradient>
	<path style="fill:url(#SVGID_5_);" d="M136,240h-24c-4.418,0-8,3.582-8,8s3.582,8,8,8h24c4.418,0,8-3.582,8-8S140.418,240,136,240z
		"/>
	
		<linearGradient id="SVGID_6_" gradientUnits="userSpaceOnUse" x1="-88.576" y1="586.625" x2="-28.765" y2="586.625" gradientTransform="matrix(8 0 0 -8 679 4941)">
		<stop  offset="0" style="stop-color:#EE235F"/>
		<stop  offset="1" style="stop-color:#F7B733"/>
	</linearGradient>
	<path style="fill:url(#SVGID_6_);" d="M168,256h72c4.418,0,8-3.582,8-8s-3.582-8-8-8h-72c-4.418,0-8,3.582-8,8S163.582,256,168,256
		z"/>
	
		<linearGradient id="SVGID_7_" gradientUnits="userSpaceOnUse" x1="-88.576" y1="586.625" x2="-28.765" y2="586.625" gradientTransform="matrix(8 0 0 -8 679 4941)">
		<stop  offset="0" style="stop-color:#EE235F"/>
		<stop  offset="1" style="stop-color:#F7B733"/>
	</linearGradient>
	<path style="fill:url(#SVGID_7_);" d="M272,272h32c4.418,0,8-3.582,8-8v-32c0-4.418-3.582-8-8-8h-32c-4.418,0-8,3.582-8,8v32
		C264,268.418,267.582,272,272,272z M280,240h16v16h-16V240z"/>
	
		<linearGradient id="SVGID_8_" gradientUnits="userSpaceOnUse" x1="-88.576" y1="578.625" x2="-28.765" y2="578.625" gradientTransform="matrix(8 0 0 -8 679 4941)">
		<stop  offset="0" style="stop-color:#EE235F"/>
		<stop  offset="1" style="stop-color:#F7B733"/>
	</linearGradient>
	<path style="fill:url(#SVGID_8_);" d="M136,304h-24c-4.418,0-8,3.582-8,8s3.582,8,8,8h24c4.418,0,8-3.582,8-8S140.418,304,136,304z
		"/>
	
		<linearGradient id="SVGID_9_" gradientUnits="userSpaceOnUse" x1="-88.576" y1="578.625" x2="-28.765" y2="578.625" gradientTransform="matrix(8 0 0 -8 679 4941)">
		<stop  offset="0" style="stop-color:#EE235F"/>
		<stop  offset="1" style="stop-color:#F7B733"/>
	</linearGradient>
	<path style="fill:url(#SVGID_9_);" d="M168,320h72c4.418,0,8-3.582,8-8s-3.582-8-8-8h-72c-4.418,0-8,3.582-8,8S163.582,320,168,320
		z"/>
	
		<linearGradient id="SVGID_10_" gradientUnits="userSpaceOnUse" x1="-88.576" y1="578.625" x2="-28.765" y2="578.625" gradientTransform="matrix(8 0 0 -8 679 4941)">
		<stop  offset="0" style="stop-color:#EE235F"/>
		<stop  offset="1" style="stop-color:#F7B733"/>
	</linearGradient>
	<path style="fill:url(#SVGID_10_);" d="M272,336h32c4.418,0,8-3.582,8-8v-32c0-4.418-3.582-8-8-8h-32c-4.418,0-8,3.582-8,8v32
		C264,332.418,267.582,336,272,336z M280,304h16v16h-16V304z"/>
	
		<linearGradient id="SVGID_11_" gradientUnits="userSpaceOnUse" x1="-88.576" y1="570.625" x2="-28.765" y2="570.625" gradientTransform="matrix(8 0 0 -8 679 4941)">
		<stop  offset="0" style="stop-color:#EE235F"/>
		<stop  offset="1" style="stop-color:#F7B733"/>
	</linearGradient>
	<path style="fill:url(#SVGID_11_);" d="M136,368h-24c-4.418,0-8,3.582-8,8s3.582,8,8,8h24c4.418,0,8-3.582,8-8S140.418,368,136,368
		z"/>
	
		<linearGradient id="SVGID_12_" gradientUnits="userSpaceOnUse" x1="-88.576" y1="570.625" x2="-28.765" y2="570.625" gradientTransform="matrix(8 0 0 -8 679 4941)">
		<stop  offset="0" style="stop-color:#EE235F"/>
		<stop  offset="1" style="stop-color:#F7B733"/>
	</linearGradient>
	<path style="fill:url(#SVGID_12_);" d="M168,384h72c4.418,0,8-3.582,8-8s-3.582-8-8-8h-72c-4.418,0-8,3.582-8,8
		S163.582,384,168,384z"/>
	
		<linearGradient id="SVGID_13_" gradientUnits="userSpaceOnUse" x1="-88.576" y1="570.625" x2="-28.765" y2="570.625" gradientTransform="matrix(8 0 0 -8 679 4941)">
		<stop  offset="0" style="stop-color:#EE235F"/>
		<stop  offset="1" style="stop-color:#F7B733"/>
	</linearGradient>
	<path style="fill:url(#SVGID_13_);" d="M272,400h32c4.418,0,8-3.582,8-8v-32c0-4.418-3.582-8-8-8h-32c-4.418,0-8,3.582-8,8v32
		C264,396.418,267.582,400,272,400z M280,368h16v16h-16V368z"/>
	
		<linearGradient id="SVGID_14_" gradientUnits="userSpaceOnUse" x1="-88.576" y1="574.125" x2="-28.765" y2="574.125" gradientTransform="matrix(8 0 0 -8 679 4941)">
		<stop  offset="0" style="stop-color:#EE235F"/>
		<stop  offset="1" style="stop-color:#F7B733"/>
	</linearGradient>
	<path style="fill:url(#SVGID_14_);" d="M416,216c-4.418,0-8,3.582-8,8v16h-8c-4.418,0-8,3.582-8,8v224c0,4.418,3.582,8,8,8h32
		c4.418,0,8-3.582,8-8V248c0-4.418-3.582-8-8-8h-8v-16C424,219.582,420.418,216,416,216z M408,256h16v32h-16V256z M424,464h-16V304
		h16V464z"/>
</g>
<g>
</g>
<g>
</g>
<g>
</g>
<g>
</g>
<g>
</g>
<g>
</g>
<g>
</g>
<g>
</g>
<g>
</g>
<g>
</g>
<g>
</g>
<g>
</g>
<g>
</g>
<g>
</g>
<g>
</g>
</svg>
